<svg xmlns="http://www.w3.org/2000/svg" version="1.1" xmlns:xlink="http://www.w3.org/1999/xlink" xmlns:svgjs="http://svgjs.dev/svgjs" width="1000" height="303" viewBox="0 0 1000 303"><g transform="matrix(1,0,0,1,-0.6060388605452545,0.6175956931515714)"><svg viewBox="0 0 396 120" data-background-color="#ffffff" preserveAspectRatio="xMidYMid meet" height="303" width="1000" xmlns="http://www.w3.org/2000/svg" xmlns:xlink="http://www.w3.org/1999/xlink"><g id="tight-bounds" transform="matrix(1,0,0,1,0.23999138877593396,-0.24459235372339094)"><svg viewBox="0 0 395.52 120.48918470744677" height="120.48918470744677" width="395.52"><g><svg viewBox="0 0 621.6012952896078 189.36143123618965" height="120.48918470744677" width="395.52"><g transform="matrix(1,0,0,1,226.0812952896078,55.79507703833858)"><svg viewBox="0 0 395.52000000000004 77.77127715951248" height="77.77127715951248" width="395.52000000000004"><g id="textblocktransform"><svg viewBox="0 0 395.52000000000004 77.77127715951248" height="77.77127715951248" width="395.52000000000004" id="textblock"><g><svg viewBox="0 0 395.52000000000004 77.77127715951248" height="77.77127715951248" width="395.52000000000004"><g transform="matrix(1,0,0,1,0,0)"><svg width="395.52000000000004" viewBox="5.099999904632568 -36.70000076293945 188.6899871826172 37.10416793823242" height="77.77127715951248" data-palette-color="#093d65"><g class="wordmark-text-0" data-fill-palette-color="primary" id="text-0"><path d="M16.95 0L5.1 0 5.1-36.3 15.2-36.3Q20.6-36.3 24.4-34.65 28.2-33 30.53-30.3 32.85-27.6 33.93-24.3 35-21 35-17.65L35-17.65Q35-13.6 33.55-10.35 32.1-7.1 29.6-4.78 27.1-2.45 23.85-1.23 20.6 0 16.95 0L16.95 0ZM10.45-31.15L10.45-5.15 15.95-5.15Q18.9-5.15 21.38-6 23.85-6.85 25.68-8.5 27.5-10.15 28.5-12.55 29.5-14.95 29.5-18.05L29.5-18.05Q29.5-21.4 28.38-23.88 27.25-26.35 25.4-27.98 23.55-29.6 21.28-30.38 19-31.15 16.65-31.15L16.65-31.15 10.45-31.15ZM40.7-18.1L40.7-18.1Q40.7-21.85 42.12-25.2 43.55-28.55 46.1-31.15 48.65-33.75 52-35.23 55.35-36.7 59.2-36.7L59.2-36.7Q63-36.7 66.35-35.23 69.7-33.75 72.3-31.15 74.9-28.55 76.35-25.2 77.8-21.85 77.8-18.1L77.8-18.1Q77.8-14.25 76.35-10.9 74.9-7.55 72.32-5 69.75-2.45 66.37-1.03 63 0.4 59.2 0.4L59.2 0.4Q55.35 0.4 52-1 48.65-2.4 46.1-4.93 43.55-7.45 42.12-10.83 40.7-14.2 40.7-18.1ZM46.2-18.1L46.2-18.1Q46.2-15.3 47.22-12.88 48.25-10.45 50.05-8.63 51.85-6.8 54.22-5.78 56.6-4.75 59.35-4.75L59.35-4.75Q62.05-4.75 64.4-5.78 66.75-6.8 68.52-8.63 70.3-10.45 71.3-12.88 72.3-15.3 72.3-18.1L72.3-18.1Q72.3-20.9 71.27-23.33 70.25-25.75 68.47-27.6 66.7-29.45 64.32-30.5 61.95-31.55 59.25-31.55L59.25-31.55Q56.45-31.55 54.1-30.5 51.75-29.45 49.95-27.6 48.15-25.75 47.17-23.3 46.2-20.85 46.2-18.1ZM110.25-7.55L112.5-2.75Q111.7-2.2 110.12-1.43 108.55-0.65 106.42-0.1 104.3 0.45 101.75 0.4L101.75 0.4Q97.5 0.35 94.12-1.1 90.75-2.55 88.4-5.08 86.05-7.6 84.77-10.88 83.5-14.15 83.5-17.85L83.5-17.85Q83.5-21.95 84.8-25.38 86.1-28.8 88.52-31.35 90.95-33.9 94.22-35.3 97.5-36.7 101.4-36.7L101.4-36.7Q104.75-36.7 107.45-35.8 110.15-34.9 112-33.7L112-33.7 109.9-28.7Q108.45-29.7 106.32-30.63 104.2-31.55 101.6-31.55L101.6-31.55Q99.05-31.55 96.77-30.53 94.5-29.5 92.77-27.68 91.05-25.85 90.05-23.43 89.05-21 89.05-18.15L89.05-18.15Q89.05-15.25 89.95-12.8 90.85-10.35 92.52-8.55 94.2-6.75 96.55-5.75 98.9-4.75 101.85-4.75L101.85-4.75Q104.65-4.75 106.77-5.6 108.9-6.45 110.25-7.55L110.25-7.55ZM141.44-33.45L139.39-29.35Q137.49-30.35 135.29-31.05 133.09-31.75 131.04-31.75L131.04-31.75Q128.24-31.75 126.59-30.48 124.94-29.2 124.94-27L124.94-27Q124.94-25.45 126.04-24.3 127.14-23.15 128.89-22.3 130.64-21.45 132.59-20.7L132.59-20.7Q134.24-20.1 135.87-19.28 137.49-18.45 138.82-17.25 140.14-16.05 140.92-14.28 141.69-12.5 141.69-9.95L141.69-9.95Q141.69-7.05 140.27-4.7 138.84-2.35 136.17-0.98 133.49 0.4 129.69 0.4L129.69 0.4Q127.39 0.4 125.22-0.13 123.04-0.65 121.12-1.53 119.19-2.4 117.64-3.45L117.64-3.45 120.04-7.6Q121.24-6.75 122.79-5.98 124.34-5.2 126.02-4.75 127.69-4.3 129.19-4.3L129.19-4.3Q130.84-4.3 132.44-4.88 134.04-5.45 135.09-6.68 136.14-7.9 136.14-9.9L136.14-9.9Q136.14-11.6 135.22-12.78 134.29-13.95 132.77-14.8 131.24-15.65 129.49-16.3L129.49-16.3Q127.79-16.95 126.04-17.75 124.29-18.55 122.79-19.68 121.29-20.8 120.37-22.48 119.44-24.15 119.44-26.6L119.44-26.6Q119.44-29.5 120.82-31.68 122.19-33.85 124.64-35.1 127.09-36.35 130.29-36.5L130.29-36.5Q133.94-36.5 136.64-35.6 139.34-34.7 141.44-33.45L141.44-33.45ZM149.59 0L149.59-36.3 154.94-36.3 154.94 0 149.59 0ZM193.79-18L193.79-3.2Q193.04-2.55 191.69-1.9 190.34-1.25 188.66-0.75 186.99-0.25 185.24 0.08 183.49 0.4 181.94 0.4L181.94 0.4Q177.54 0.4 174.04-0.95 170.54-2.3 168.04-4.7 165.54-7.1 164.21-10.33 162.89-13.55 162.89-17.35L162.89-17.35Q162.89-22 164.39-25.6 165.89-29.2 168.46-31.68 171.04-34.15 174.41-35.43 177.79-36.7 181.49-36.7L181.49-36.7Q184.74-36.7 187.51-35.95 190.29-35.2 192.29-34L192.29-34 190.54-29.1Q189.54-29.65 188.06-30.18 186.59-30.7 185.04-31 183.49-31.3 182.19-31.3L182.19-31.3Q178.99-31.3 176.46-30.38 173.94-29.45 172.14-27.7 170.34-25.95 169.36-23.45 168.39-20.95 168.39-17.8L168.39-17.8Q168.39-14.95 169.39-12.58 170.39-10.2 172.19-8.47 173.99-6.75 176.49-5.83 178.99-4.9 182.04-4.9L182.04-4.9Q183.79-4.9 185.49-5.25 187.19-5.6 188.39-6.25L188.39-6.25 188.39-12.85 181.39-12.85 181.39-18 193.79-18Z" fill="#093d65" data-fill-palette-color="primary"></path></g></svg></g></svg></g></svg></g></svg></g><g><svg viewBox="0 0 189.36143123618965 189.36143123618965" height="189.36143123618965" width="189.36143123618965"><g><svg></svg></g><g id="icon-0"><svg viewBox="0 0 189.36143123618965 189.36143123618965" height="189.36143123618965" width="189.36143123618965"><g><path d="M0 94.681c0-52.291 42.39-94.681 94.681-94.681 52.291 0 94.681 42.39 94.68 94.681 0 52.291-42.39 94.681-94.68 94.68-52.291 0-94.681-42.39-94.681-94.68zM94.681 182.348c48.417 0 87.667-39.25 87.667-87.667 0-48.417-39.25-87.667-87.667-87.668-48.417 0-87.667 39.25-87.668 87.668 0 48.417 39.25 87.667 87.668 87.667z" data-fill-palette-color="accent" fill="#f98e54" stroke="transparent"></path></g><g transform="matrix(1,0,0,1,39.88915975598995,75.69147151518646)"><svg viewBox="0 0 109.58311172420974 37.9784882058167" height="37.9784882058167" width="109.58311172420974"><g><svg version="1.1" xmlns="http://www.w3.org/2000/svg" xmlns:xlink="http://www.w3.org/1999/xlink" x="0" y="0" viewBox="0 0.0017516016960144043 100 34.65724563598633" enable-background="new 0 0 100 34.66" xml:space="preserve" width="109.58311172420974" height="37.9784882058167" class="icon-s-0" data-fill-palette-color="accent" id="s-0"><g fill="#f98e54" data-fill-palette-color="accent"><path fill="#f98e54" d="M99.012 33.044l-0.145-0.912c-0.426 0.067-6.813 0.656-98.479 0.656v1.871c50.979 0 75.098-0.185 86.355-0.34C100 34.137 100 34.137 100 33.044H99.012z" data-fill-palette-color="accent"></path><path fill="#f98e54" d="M0.568 31.557c0.414 0 1.097-0.549 4.354-3.645 0.99 0.943 2.177 2.078 3.601 3.445l1.296-1.349c-1.392-1.336-2.544-2.442-3.537-3.393 1.003-0.959 2.188-2.098 3.601-3.454l-1.296-1.349c-1.458 1.398-2.662 2.55-3.665 3.504-4.03-3.837-4.163-3.822-4.666-3.652l0.295 0.938L0 23.322c0.055 0.044 0.541 0.44 3.555 3.293-2.956 2.798-3.436 3.189-3.49 3.231l0.536 0.766L0.306 31.5C0.398 31.531 0.477 31.557 0.568 31.557z" data-fill-palette-color="accent"></path><path fill="#f98e54" d="M15.082 32.75c2.579-1.367 5.121-2.81 7.277-4.779 0.109-0.101 2.016-1.97 2.083-2.036 2.014-2.096 3.858-4.342 5.617-6.654-0.767 2.239-1.423 4.513-2.155 6.764-0.503 1.245-0.63 2.526-0.596 3.85 0.03 0.883 0.138 1.523 1.158 1.55 3.362-1.053 5.972-3.429 8.376-5.849 1.201-1.271 2.416-2.531 3.663-3.759 0.292 0.177 0.532 0.441 0.748 0.696 0.541 0.741 1.054 1.152 1.975 1.237 0.979 0.009 1.962-0.167 2.935-0.017 1.065 0.345 2.153 0.612 3.233 0.908 0.61 0.174 1.228 0.371 1.864 0.44 1.155 0.124 2.816 0.069 3.902 0.047 2.396-0.047 4.793-0.113 7.189-0.168 6.013-0.135 12.031-0.099 18.04-0.398 3.106-0.153 4.35-0.285 7.405-0.548 1.137-0.139 2.273-0.279 3.41-0.421l3.523-2.628c-1.141 0.15-2.282 0.3-3.425 0.452-2.804 0.269-4.666 0.471-7.504 0.645-5.983 0.365-11.978 0.369-17.973 0.365-2.473-0.001-4.474 0.008-6.913-0.023-0.547-0.007-2.87-0.034-3.643-0.12-0.612-0.068-1.225-0.26-1.816-0.423-1.061-0.317-2.128-0.612-3.166-0.994-0.976-0.265-1.983-0.073-2.982-0.069-0.913 0.052-1.202-0.099-1.77-0.866-0.131-0.155-0.566-0.68-0.71-0.804-2.054-1.775-5.451 1.703-6.567 2.377-2.056 1.881-3.947 3.932-5.896 5.922-0.211 0.204-0.392 0.38-0.579 0.561-0.01-0.177-0.011-0.345-0.021-0.399-0.037-1.252 0.129-2.462 0.558-3.648 0.7-2.319 1.369-4.651 2.226-6.92 0.719-1.801 1.441-3.6 2.25-5.363 0.911-2.129 1.734-4.292 2.456-6.493 0.446-1.356 0.918-2.761 0.795-4.209-0.653-2.812-4.817 1.164-5.336 3.106-1.057 2.306-2.147 4.594-3.091 6.95-0.166 0.379-1.089 2.499-1.269 2.874-0.995 2.068-2.249 3.993-3.556 5.873-2.098 2.799-4.323 5.501-6.788 7.987-1.024 0.986-2.036 1.966-3.154 2.847-0.288 0.227-1.207 0.828-0.877 0.665 1.474-0.724 5.012-2.857 3.032-1.666L15.082 32.75zM39.321 21.749C37.408 22.803 38.287 22.044 39.321 21.749L39.321 21.749zM32.484 28.404c-0.091 0.046-0.181 0.106-0.273 0.152C32.989 28.11 33.353 27.896 32.484 28.404z" data-fill-palette-color="accent"></path></g></svg></g></svg></g></svg></g></svg></g></svg></g><defs></defs></svg><rect width="395.52" height="120.48918470744677" fill="none" stroke="none" visibility="hidden"></rect></g></svg></g></svg>
